<svg xmlns="http://www.w3.org/2000/svg" viewBox="0 0 214.34 120.41" fill="#233347">
  <path
    d="M196,52.29a90.94,90.94,0,0,0-11.07,1.05c-12,2.09-23,6.76-33.76,12.24a2.18,2.18,0,0,0-.93,1.12,67.75,67.75,0,0,0-4.49,25.19c.11,4.42.67,8.75,2.73,12.76,3.05,5.92,8.18,9,14.47,10.4,6.58,1.45,13.19,1.09,19.79.12a77.1,77.1,0,0,0,26.69-9.52,20.64,20.64,0,0,1,2.36-1.16,1.71,1.71,0,0,1,2.23.61,1.52,1.52,0,0,1-.39,2.23,50.64,50.64,0,0,1-5.82,4,75.08,75.08,0,0,1-34.53,9.1c-6.59.12-13-.68-19-3.57-10-4.78-15.09-12.85-16-23.78a54.2,54.2,0,0,1,2.38-20.91c.07-.22.1-.45.19-.89-.56.31-.93.5-1.3.72a384.81,384.81,0,0,0-42.85,29.82c-5.5,4.33-10.94,8.73-16.41,13.08a5.12,5.12,0,0,1-1.69,1.1,2.79,2.79,0,0,1-2-.16,1.34,1.34,0,0,1,.09-2c1.55-1.67,3-3.4,4.73-4.92A327.39,327.39,0,0,1,142.2,65.29a3.09,3.09,0,0,0,1.34-1.23c5.23-12,12.43-22.67,20.56-32.79,3.45-4.29,7.13-8.41,10.71-12.6a1.5,1.5,0,0,0,.37-.66c-.2.12-.42.24-.61.38Q144,41.31,113.36,64.24a189.36,189.36,0,0,1-58,29.3,123.23,123.23,0,0,1-33.53,5.84,31.74,31.74,0,0,1-11.55-1.7C2.82,95-.76,88.9.14,80.85c1-8.85,5-16.34,10.28-23.23,7.16-9.23,16-16.56,25.73-23A151.14,151.14,0,0,1,80.59,14.28c7.29-1.94,14.68-3.24,22.26-2.76A33,33,0,0,1,110,12.73c6.09,1.79,9,6.45,8.42,12.76-.75,8.64-5.22,15.19-11.44,20.76C99.61,52.87,90.86,57,81.43,59.9A95.49,95.49,0,0,1,55.49,64a85.55,85.55,0,0,1-9.2-.35A9.07,9.07,0,0,1,43,62.42a2,2,0,0,1,1.21-3.75c1.63.11,3.25.42,4.88.53a65.46,65.46,0,0,0,14.33-.75A87.15,87.15,0,0,0,96.46,46.7c5.29-3.25,10.07-7.08,13.66-12.23a18.89,18.89,0,0,0,3.54-9c.45-4.48-1.44-7.39-5.77-8.67a28.75,28.75,0,0,0-10.33-.84c-12,.88-23.14,4.62-34,9.4C49,31.76,35.55,40,23.87,50.93,17.4,57,11.8,63.7,8.29,72a32.71,32.71,0,0,0-2.44,9.58C5.2,88,8.58,92.67,15.1,94.2a32.76,32.76,0,0,0,10.5.35c27-2.51,51.47-12.22,74-27,10.31-6.77,20.19-14.21,30.13-21.52,19.54-14.38,39-28.88,58.47-43.31A27.4,27.4,0,0,1,192,.46c1-.51,2.23-.81,3.07.27a2.33,2.33,0,0,1-.33,3.08c-2.49,2.92-5,5.84-7.57,8.66-8.69,9.45-17.19,19.06-24.17,29.87-3.27,5-6.06,10.41-9,15.63-.27.47-.45,1-.79,1.75,2.31-1,4.32-1.93,6.36-2.8A112.13,112.13,0,0,1,185.42,49c4.5-.71,9-1.34,13.58-.56a10.48,10.48,0,0,1,4,1.75"/>
</svg>
