<?xml version="1.0" encoding="UTF-8" standalone="no"?>
<svg
  version="1.0"
  width="45.7"
  height="64"
  viewBox="0 0 930.25592 1302.3739"
  xmlns="http://www.w3.org/2000/svg"
>
  <g
    transform="matrix(0.1,0,0,-0.1,11.418486,1291.5783)"
  >

    <path
      d="M 4245,12794 C 2406,12675 949,11730 332,10255 181,9895 81,9505 29,9069 -1,8825 -3,8383 24,8155 122,7320 421,6419 966,5320 1570,4100 2408,2781 3506,1320 3825,895 4517,13 4532,11 c 14,-2 676,838 1021,1297 2406,3198 3633,5834 3508,7537 -80,1091 -470,1971 -1182,2672 -717,706 -1688,1138 -2829,1259 -138,14 -674,26 -805,18 z"
      style="fill:#8da0a8;stroke:#233347;stroke-width:200;"
    />
    <path
      d="m 306.19105,-212.19851 a 321.56176,321.56176 0 0 0 -39.14327,3.71278 c -42.43173,7.39019 -81.32747,23.90321 -119.37459,43.28036 a 7.7084303,7.7084303 0 0 0 -3.28847,3.96029 239.56245,239.56245 0 0 0 -15.87653,89.071259 c 0.38896,15.62902 2.36911,30.939806 9.65322,45.119075 10.78473,20.9329842 28.9243,31.8237922 51.16559,36.7741622 23.26673,5.1271628 46.63954,3.8542128 69.97699,0.4243158 a 272.62384,272.62384 0 0 0 94.37523,-33.662502 72.982569,72.982569 0 0 1 8.3449,-4.101737 6.046521,6.046521 0 0 1 7.88523,2.156948 5.3746853,5.3746853 0 0 1 -1.37903,7.885228 179.06188,179.06188 0 0 1 -20.57939,14.1439122 265.48117,265.48117 0 0 1 -122.09729,32.1773948 c -23.30209,0.424316 -45.9677,-2.404471 -67.18357,-12.62344 -35.35977,-16.90196881 -53.35789,-45.437308 -56.57563,-84.085537 a 191.64997,191.64997 0 0 1 8.41562,-73.937279 c 0.24753,-0.77792 0.35361,-1.5912 0.67184,-3.14702 -1.98014,1.09615 -3.28846,1.76798 -4.59677,2.5459 A 1360.6794,1360.6794 0 0 0 -44.931514,-37.061564 C -64.379392,-21.750782 -83.615102,-6.1924838 -102.9569,9.1890202 a 18.104203,18.104203 0 0 1 -5.97579,3.8895708 9.8653766,9.8653766 0 0 1 -7.07194,-0.565753 4.7382095,4.7382095 0 0 1 0.31824,-7.0719518 c 5.48075,-5.90508201 10.6079,-12.022321 16.725142,-17.3970072 A 1157.6436,1157.6436 0 0 1 115.95547,-166.2308 a 10.926169,10.926169 0 0 0 4.73821,-4.34926 c 18.49316,-42.43172 43.9522,-80.16061 72.6997,-115.94469 12.19912,-15.16935 25.21151,-29.73757 37.87031,-44.55331 a 5.3039658,5.3039658 0 0 0 1.30831,-2.33375 c -0.7072,0.42432 -1.48511,0.84863 -2.15695,1.34367 q -108.09482,81.0446 -216.437183,162.12456 a 669.57264,669.57264 0 0 1 -205.086647,103.604129 435.73847,435.73847 0 0 1 -118.56132,20.6501 112.23192,112.23192 0 0 1 -40.84053,-6.01116 c -26.37839,-9.47642 -39.03719,-31.04588 -35.85481,-59.510489 3.53598,-31.2934 17.67989,-57.77787 36.34985,-82.14075 25.3176,-32.63708 56.57562,-58.55579 90.98068,-81.32748 A 534.42759,534.42759 0 0 1 -101.8961,-346.601 c 25.777268,-6.8598 51.908137,-11.45657 78.710846,-9.75931 a 116.68725,116.68725 0 0 1 25.2822345,4.27854 c 21.5341025,6.3294 31.8238015,22.80705 29.7729325,45.11907 -2.651986,30.55085 -18.457799,53.71149 -40.4515829,73.40688 -26.0601451,23.40818 -56.9999521,38.01177 -90.3442081,48.2661 a 337.65047,337.65047 0 0 1 -91.723232,14.49751 302.50285,302.50285 0 0 1 -32.53099,-1.2376 32.071313,32.071313 0 0 1 -11.63337,-4.34925 7.0719544,7.0719544 0 0 1 4.27854,-13.25991 c 5.76364,0.38896 11.49192,1.48511 17.25556,1.87406 a 231.46507,231.46507 0 0 0 50.67056,-2.65198 308.16041,308.16041 0 0 0 116.828663,-41.54773 c 18.705323,-11.49193 35.60729,-25.03472 48.3014445,-43.24501 a 66.794609,66.794609 0 0 0 12.5173605,-31.82379 c 1.591195,-15.84118 -5.0918061,-26.13087 -20.4025887,-30.65692 a 101.65935,101.65935 0 0 0 -36.5266373,-2.97022 c -42.431724,3.11166 -81.822492,16.33621 -120.223202,33.23818 -51.48384,22.63026 -99.04273,51.76671 -140.34294,90.41494 -22.87776,21.46339 -42.67924,45.15443 -55.09052,74.50304 a 115.66181,115.66181 0 0 0 -8.62778,33.87466 c -2.29838,22.700969 9.65322,39.213989 32.70779,44.624029 a 115.83862,115.83862 0 0 0 37.12775,1.23759 c 95.47138,-8.8753 181.99674,-43.209629 261.662289,-95.471379 36.4559245,-23.93856 71.391385,-50.24623 106.538996,-76.09423 69.093015,-50.84735 137.903135,-102.11902 206.748615,-153.14317 a 96.885778,96.885778 0 0 1 13.4367,-7.99131 c 3.53599,-1.80334 7.88524,-2.86414 10.85546,0.95471 a 8.2388268,8.2388268 0 0 1 -1.16688,10.89082 c -8.80458,10.32505 -17.67988,20.6501 -26.76735,30.62156 -30.72763,33.41498 -60.78344,67.39572 -85.46456,105.61964 -11.56265,17.67989 -21.42803,36.80952 -31.82379,55.26732 -0.95472,1.66191 -1.5912,3.53598 -2.79343,6.18796 8.16811,-3.53597 15.27542,-6.82443 22.48882,-9.90073 a 396.48912,396.48912 0 0 1 91.40501,-28.00495 c 15.91189,-2.51054 31.82379,-4.7382 48.01856,-1.98014 a 37.057041,37.057041 0 0 1 14.14392,6.18796"
      style="fill:#233347"
      transform="matrix(8.9734809,0,0,-8.9734809,4511.4778,6468.3908)"
    />
  </g>
</svg>
