<svg xmlns="http://www.w3.org/2000/svg" viewBox="0 0 306.92 77.8">
  <defs>
    <style>.cls-1{fill:none;stroke:#000;stroke-miterlimit:10;}</style>
  </defs>
    <g>
      <line class="cls-1" x1="0.5" y1="0.5" x2="0.5" y2="77.5"/>
      <line class="cls-1" x1="62.5" y1="0.5" x2="62.5" y2="77.5"/>
      <line class="cls-1" x1="0.5" y1="35.5" x2="62.5" y2="35.5"/>
      <polyline class="cls-1" points="169.5 77.5 133.5 1.5 95.5 77.5"/>
      <line class="cls-1" x1="109.5" y1="50.5" x2="156.5" y2="50.5"/>
      <line class="cls-1" x1="202.5" y1="0.5" x2="202.5" y2="77.5"/>
      <line class="cls-1" x1="303.5" y1="77.5" x2="277.5" y2="43.5"/>
      <path class="cls-1"
            d="M243.5,43.5h37a59.2,59.2,0,0,0,10.8-1.11,30.82,30.82,0,0,0,7.75-2.49,13,13,0,0,0,4.57-3.78,12.86,12.86,0,0,0,2.25-4.59,23.91,23.91,0,0,0,.55-5.41v-8a22.91,22.91,0,0,0-.62-5.65,13,13,0,0,0-2.49-4.73,13.34,13.34,0,0,0-5.12-3.81,36.81,36.81,0,0,0-8.76-2.37A82.41,82.41,0,0,0,276.32.61L243,.5h.5v77"/>
    </g>
</svg>
