<?xml version="1.0" standalone="no"?>
<!DOCTYPE svg PUBLIC "-//W3C//DTD SVG 20010904//EN"
 "http://www.w3.org/TR/2001/REC-SVG-20010904/DTD/svg10.dtd">
<svg version="1.0" xmlns="http://www.w3.org/2000/svg"
 width="1712.000000pt" height="1712.000000pt" viewBox="0 0 1712.000000 1712.000000"
 preserveAspectRatio="xMidYMid meet">
<metadata>
Created by potrace 1.14, written by Peter Selinger 2001-2017
</metadata>
<g transform="translate(0.000000,1712.000000) scale(0.100000,-0.100000)"
fill="#000000" stroke="none">
<path d="M15389 13355 c-20 -7 -73 -33 -118 -57 -45 -23 -91 -47 -102 -53 -10
-5 -19 -13 -19 -17 0 -5 -4 -8 -10 -8 -14 0 -120 -73 -120 -82 0 -4 -5 -8 -11
-8 -6 0 -41 -23 -77 -51 -78 -59 -247 -185 -288 -214 -15 -11 -33 -26 -40 -32
-7 -7 -16 -13 -21 -13 -4 0 -26 -16 -48 -35 -22 -19 -43 -35 -46 -35 -3 0 -15
-8 -27 -17 -45 -39 -59 -50 -107 -83 -27 -19 -56 -41 -65 -47 -8 -7 -83 -63
-167 -125 -84 -62 -270 -201 -414 -308 -144 -107 -267 -197 -273 -199 -5 -2
-20 -15 -33 -27 -13 -13 -27 -24 -32 -24 -4 0 -16 -8 -27 -18 -10 -10 -41 -33
-69 -52 -27 -19 -55 -39 -61 -45 -11 -11 -23 -19 -144 -109 -41 -30 -80 -59
-85 -64 -6 -5 -34 -25 -63 -45 -28 -21 -60 -43 -69 -51 -16 -13 -69 -53 -145
-108 -113 -82 -234 -174 -236 -180 -2 -5 -10 -8 -17 -8 -7 0 -15 -4 -17 -8 -2
-5 -28 -26 -58 -48 -30 -21 -59 -42 -65 -46 -18 -15 -83 -63 -107 -80 -12 -9
-32 -24 -43 -32 -11 -9 -72 -54 -135 -100 -63 -47 -124 -92 -135 -100 -148
-113 -204 -153 -209 -148 -3 3 -6 1 -6 -5 0 -6 -19 -23 -42 -38 -24 -16 -59
-41 -78 -56 -19 -16 -87 -67 -150 -113 -63 -47 -120 -89 -126 -94 -5 -5 -20
-14 -31 -21 -12 -6 -27 -17 -35 -23 -7 -7 -31 -26 -53 -42 -22 -17 -42 -32
-45 -36 -3 -3 -23 -17 -45 -32 -22 -14 -49 -33 -60 -42 -11 -9 -49 -38 -85
-64 -36 -26 -74 -55 -84 -64 -11 -10 -23 -18 -27 -18 -4 0 -14 -6 -21 -13 -7
-7 -47 -38 -88 -67 -41 -30 -77 -57 -80 -60 -3 -3 -45 -35 -95 -70 -49 -35
-95 -69 -101 -75 -6 -5 -22 -17 -34 -25 -12 -8 -46 -33 -75 -55 -29 -22 -63
-47 -75 -55 -12 -8 -31 -23 -43 -32 -12 -9 -62 -46 -112 -82 -49 -36 -95 -69
-100 -73 -6 -4 -28 -21 -50 -38 -22 -16 -44 -33 -50 -37 -5 -5 -71 -53 -145
-107 -74 -55 -140 -104 -147 -110 -7 -6 -17 -11 -23 -11 -5 0 -10 -4 -10 -8 0
-4 -13 -16 -30 -25 -16 -10 -35 -23 -42 -30 -7 -7 -42 -33 -78 -57 -36 -25
-67 -48 -70 -51 -3 -3 -39 -30 -80 -60 -41 -29 -76 -57 -78 -61 -2 -5 -9 -8
-15 -8 -6 0 -21 -10 -33 -21 -13 -12 -32 -27 -43 -33 -34 -19 -326 -230 -329
-238 -2 -5 -8 -8 -14 -8 -6 0 -23 -10 -38 -22 -16 -13 -44 -33 -62 -46 -18
-13 -70 -50 -116 -82 -45 -33 -87 -60 -92 -60 -6 0 -10 -4 -10 -10 0 -5 -6
-10 -13 -10 -7 0 -22 -8 -33 -18 -17 -16 -227 -160 -272 -187 -9 -5 -19 -12
-22 -15 -15 -15 -71 -50 -80 -50 -5 0 -10 -4 -10 -10 0 -5 -7 -10 -15 -10 -8
0 -15 -4 -15 -10 0 -5 -7 -10 -15 -10 -8 0 -15 -4 -15 -10 0 -5 -4 -10 -9 -10
-11 0 -134 -81 -143 -95 -4 -5 -8 -7 -8 -3 0 6 -91 -49 -117 -72 -7 -5 -17
-10 -22 -10 -5 0 -22 -11 -38 -24 -15 -13 -38 -26 -50 -30 -13 -4 -23 -12 -23
-17 0 -5 -4 -9 -9 -9 -5 0 -46 -22 -90 -50 -44 -27 -85 -50 -91 -50 -5 0 -10
-4 -10 -9 0 -5 -8 -11 -17 -14 -10 -4 -38 -18 -63 -33 -25 -15 -59 -35 -77
-45 -17 -10 -49 -29 -70 -42 -21 -13 -48 -27 -60 -31 -13 -4 -23 -12 -23 -17
0 -5 -9 -9 -20 -9 -11 0 -20 -4 -20 -9 0 -5 -15 -14 -32 -22 -18 -7 -35 -15
-38 -18 -3 -4 -25 -16 -50 -29 -25 -13 -70 -37 -100 -54 -30 -16 -131 -69
-225 -116 -93 -47 -172 -88 -175 -91 -3 -4 -9 -7 -15 -8 -5 -1 -80 -35 -165
-76 -85 -41 -213 -100 -285 -132 -71 -32 -155 -69 -185 -84 -30 -14 -59 -26
-65 -26 -5 -1 -25 -9 -42 -18 -18 -10 -33 -15 -33 -11 0 4 -6 2 -12 -4 -7 -6
-56 -27 -108 -47 -52 -21 -108 -43 -125 -50 -32 -14 -361 -137 -375 -141 -3 0
-12 -4 -20 -7 -53 -22 -522 -176 -555 -183 -5 -1 -66 -18 -134 -39 -68 -20
-133 -38 -144 -41 -11 -2 -45 -11 -76 -20 -31 -9 -64 -18 -74 -20 -24 -6 -41
-10 -127 -32 -41 -11 -129 -32 -195 -47 -66 -15 -142 -33 -169 -41 -27 -8 -51
-12 -54 -10 -2 3 -14 1 -27 -4 -13 -5 -43 -11 -66 -15 -24 -3 -52 -8 -61 -11
-19 -6 -49 -12 -93 -19 -16 -3 -52 -10 -80 -15 -27 -5 -65 -12 -82 -15 -38 -6
-79 -13 -108 -19 -11 -2 -45 -7 -75 -12 -30 -4 -57 -8 -60 -9 -31 -7 -114 -18
-150 -21 -25 -1 -45 -3 -45 -4 0 -4 -105 -20 -170 -25 -27 -3 -66 -7 -85 -10
-43 -6 -115 -14 -183 -20 -29 -2 -73 -7 -99 -11 -26 -3 -69 -7 -97 -7 -28 -1
-51 -4 -51 -7 0 -11 -350 -1 -475 14 -74 9 -140 18 -159 22 -12 3 -32 7 -46
10 -14 3 -40 9 -58 15 -18 6 -39 12 -45 13 -12 3 -29 10 -114 44 -24 9 -43 20
-43 25 0 4 -9 7 -20 7 -11 0 -20 5 -20 10 0 6 -5 10 -10 10 -36 0 -195 137
-263 226 -45 60 -110 187 -122 239 -2 6 -8 30 -15 55 -7 25 -15 65 -18 90 -12
94 -5 321 12 405 8 41 20 111 22 128 1 9 2 18 4 20 2 2 6 20 14 57 12 52 15
66 25 98 5 18 9 33 9 35 -2 3 42 140 52 162 5 11 19 45 30 75 11 30 25 64 30
75 19 40 79 176 80 180 0 2 16 31 34 62 17 32 39 73 47 91 7 17 17 32 21 32 5
0 8 5 8 11 0 13 83 151 147 247 24 35 43 67 43 72 0 4 3 10 8 12 4 2 36 44 72
93 75 105 167 223 192 246 10 9 18 20 18 24 0 4 11 19 24 33 14 15 37 41 53
59 159 179 370 394 527 538 55 50 111 101 126 115 15 14 53 48 85 75 32 28 67
58 78 68 11 9 25 17 30 17 6 0 8 3 4 6 -3 3 15 22 41 41 26 20 54 43 63 52 15
14 64 53 279 221 32 25 68 52 80 60 12 8 36 27 54 42 17 15 35 28 39 28 5 0
15 7 24 15 8 9 43 34 77 57 33 23 63 44 66 48 6 8 374 253 459 305 35 22 80
50 100 63 20 12 52 31 71 42 19 11 44 26 55 33 41 26 101 62 120 72 61 34 144
81 187 106 27 16 51 29 54 29 2 0 22 11 44 25 22 14 46 25 55 25 8 0 15 4 15
9 0 5 16 15 35 22 19 7 35 17 35 22 0 4 5 5 10 2 6 -3 10 -3 10 2 0 4 34 23
75 42 41 19 75 38 75 43 0 4 5 8 11 8 6 0 95 41 198 91 102 51 192 92 199 92
6 0 12 4 12 8 0 8 31 20 41 16 4 -1 17 7 29 18 12 11 23 19 24 17 2 -5 43 12
140 57 49 23 89 41 91 41 1 0 19 7 39 15 20 8 39 15 42 14 4 0 10 4 13 10 4 6
16 12 26 14 19 4 61 21 130 52 48 21 248 100 267 104 4 1 33 13 63 26 31 14
60 25 66 25 6 0 25 6 42 14 35 15 159 60 167 61 3 0 11 4 18 8 6 5 12 6 12 3
0 -3 20 3 45 14 25 11 49 20 53 20 4 0 52 15 107 32 55 17 105 33 110 35 28 8
302 85 315 88 101 25 324 75 354 79 21 4 41 8 45 10 6 4 67 15 111 21 14 2 41
6 60 10 38 7 74 13 130 20 19 2 46 7 60 10 14 3 50 8 80 11 30 2 71 7 90 9 19
2 62 6 95 9 33 3 94 9 135 12 169 16 442 6 580 -20 14 -3 40 -8 58 -10 19 -3
61 -13 95 -21 34 -9 73 -19 87 -21 85 -17 232 -104 305 -181 62 -65 122 -179
131 -248 2 -16 6 -43 10 -59 16 -75 2 -238 -33 -391 -9 -38 -16 -73 -15 -77 1
-5 -3 -8 -8 -8 -5 0 -9 -3 -9 -7 1 -5 0 -11 -1 -15 -1 -5 -3 -11 -4 -15 -25
-106 -182 -391 -265 -480 -12 -12 -21 -25 -21 -28 0 -13 -166 -201 -263 -297
-122 -122 -329 -296 -437 -368 -12 -8 -28 -20 -34 -25 -32 -28 -294 -195 -306
-195 -6 0 -10 -4 -10 -10 0 -5 -11 -12 -25 -16 -14 -3 -25 -10 -25 -15 0 -5
-4 -9 -9 -9 -4 0 -48 -23 -97 -51 -49 -28 -134 -74 -189 -102 -55 -28 -103
-56 -107 -61 -4 -6 -8 -7 -8 -2 0 5 -7 3 -15 -4 -8 -7 -15 -9 -15 -4 0 5 -4 4
-8 -2 -6 -9 -175 -94 -187 -94 -2 0 -32 -13 -67 -29 -35 -16 -92 -41 -128 -55
-36 -15 -74 -31 -85 -36 -40 -19 -172 -69 -290 -109 -66 -23 -127 -45 -135
-48 -16 -6 -32 -11 -52 -16 -7 -1 -19 -6 -25 -10 -7 -5 -13 -6 -13 -2 0 3 -9
1 -21 -5 -11 -6 -29 -13 -40 -16 -35 -8 -53 -13 -144 -40 -49 -14 -94 -27
-100 -28 -5 -1 -19 -5 -30 -9 -11 -3 -31 -9 -45 -11 -14 -3 -45 -11 -70 -17
-25 -6 -54 -13 -65 -15 -11 -2 -72 -15 -135 -29 -63 -14 -128 -28 -145 -30
-16 -3 -41 -7 -55 -10 -14 -2 -41 -7 -60 -11 -19 -3 -42 -7 -50 -9 -19 -4
-117 -17 -150 -21 -14 -1 -25 -3 -25 -4 0 -4 -80 -16 -170 -25 -27 -3 -66 -8
-85 -11 -43 -7 -155 -15 -232 -17 -32 -1 -58 -4 -58 -7 0 -13 -632 -1 -725 14
-17 2 -52 7 -80 10 -27 3 -75 8 -105 12 -108 13 -151 6 -191 -29 -54 -46 -71
-110 -47 -178 16 -48 43 -72 118 -109 106 -53 155 -68 240 -76 25 -3 63 -6 85
-9 213 -22 820 -22 1035 0 43 4 179 16 240 21 25 1 45 4 45 4 0 2 41 7 115 14
25 3 45 5 45 6 0 1 14 3 30 5 48 6 118 16 140 20 11 2 38 6 60 10 22 3 51 8
65 11 14 3 39 7 55 9 17 3 87 16 155 30 69 15 136 29 150 31 14 3 43 10 65 15
22 5 49 12 60 14 11 3 56 14 100 25 44 12 89 23 100 26 11 2 67 18 124 35 112
33 139 40 159 41 6 1 12 6 12 11 0 6 3 8 6 5 3 -4 20 0 39 7 18 8 35 11 39 8
3 -4 6 -1 6 5 0 7 3 11 8 10 6 -2 65 15 102 29 8 4 18 7 23 8 4 2 9 4 12 5 3
1 8 3 13 5 4 1 14 5 22 8 8 3 80 31 160 61 171 64 207 79 393 165 49 23 92 41
96 41 5 0 14 7 21 15 7 8 16 12 21 9 5 -3 9 0 9 5 0 6 6 11 13 11 13 0 32 9
112 55 78 43 137 76 170 93 17 8 32 18 35 22 3 4 21 15 40 26 19 10 39 23 45
27 19 15 117 77 121 77 2 0 12 7 21 14 10 8 54 40 97 71 256 182 577 475 716
655 19 25 40 49 46 55 9 8 58 74 141 191 48 66 195 339 208 384 1 3 6 16 12
30 19 46 55 145 58 160 2 8 13 47 24 86 72 254 94 583 50 748 -6 22 -13 48
-14 57 -6 32 -59 154 -87 202 -36 62 -40 67 -123 151 -79 79 -110 106 -125
106 -6 0 -10 5 -10 10 0 6 -6 10 -14 10 -8 0 -16 3 -18 8 -4 10 -177 92 -208
98 -3 0 -12 3 -20 6 -35 12 -87 27 -110 32 -25 6 -88 20 -125 29 -11 3 -56 10
-100 17 -44 6 -91 13 -105 16 -141 24 -635 24 -855 0 -140 -16 -184 -20 -212
-20 -18 -1 -33 -4 -33 -7 0 -3 -6 -6 -12 -6 -21 0 -100 -13 -138 -22 -19 -4
-45 -7 -57 -6 -13 1 -23 -2 -23 -6 0 -4 -9 -6 -20 -4 -11 2 -20 -1 -20 -6 0
-6 -4 -8 -9 -5 -4 3 -42 -2 -82 -10 -41 -9 -82 -17 -92 -19 -30 -6 -321 -76
-335 -80 -7 -3 -14 -5 -17 -5 -3 -1 -19 -6 -37 -11 -38 -11 -62 -18 -97 -25
-14 -3 -29 -8 -35 -12 -6 -3 -18 -8 -26 -9 -8 -1 -76 -21 -150 -44 -74 -22
-155 -47 -180 -54 -25 -7 -62 -20 -84 -29 -21 -9 -44 -16 -52 -16 -7 0 -25 -5
-41 -12 -15 -6 -32 -12 -38 -14 -5 -1 -68 -23 -140 -49 -71 -26 -155 -56 -185
-66 -30 -11 -64 -24 -75 -29 -11 -5 -74 -30 -140 -55 -66 -25 -133 -53 -150
-62 -16 -9 -32 -17 -35 -16 -12 2 -328 -133 -346 -148 -6 -5 -14 -6 -17 -2 -4
3 -7 1 -7 -6 0 -7 -4 -10 -9 -6 -5 3 -12 1 -16 -5 -3 -5 -15 -10 -26 -10 -10
0 -19 -4 -19 -10 0 -5 -5 -10 -10 -10 -6 0 -42 -16 -80 -35 -39 -19 -73 -34
-75 -35 -13 -1 -120 -56 -123 -62 -2 -5 -12 -8 -23 -8 -10 0 -19 -5 -19 -10 0
-6 -3 -9 -7 -8 -8 2 -66 -27 -243 -120 -52 -28 -120 -63 -150 -79 -30 -15 -57
-30 -60 -33 -3 -3 -23 -14 -45 -25 -22 -11 -46 -26 -53 -32 -7 -7 -20 -13 -28
-13 -8 0 -14 -4 -14 -8 0 -4 -12 -13 -27 -19 -16 -7 -50 -26 -78 -43 -27 -17
-59 -35 -70 -40 -11 -6 -63 -37 -115 -70 -52 -33 -102 -64 -110 -67 -8 -4 -24
-15 -34 -25 -11 -10 -24 -18 -28 -18 -5 0 -49 -27 -99 -60 -49 -33 -94 -60
-99 -60 -6 0 -10 -4 -10 -10 0 -5 -16 -16 -35 -24 -19 -8 -35 -20 -35 -25 0
-6 -5 -11 -11 -11 -6 0 -25 -11 -43 -25 -18 -14 -36 -22 -39 -18 -4 3 -7 1 -7
-4 0 -6 -24 -26 -52 -43 -29 -18 -55 -35 -58 -39 -3 -3 -32 -24 -65 -46 -33
-22 -76 -51 -95 -66 -19 -14 -64 -47 -100 -73 -134 -98 -354 -268 -424 -329
-27 -23 -49 -40 -50 -37 -1 2 -22 -16 -48 -40 -26 -25 -53 -50 -61 -56 -171
-142 -494 -453 -652 -629 -44 -49 -89 -99 -101 -111 -11 -12 -38 -44 -60 -70
-21 -27 -42 -51 -45 -54 -4 -3 -48 -57 -97 -120 -50 -63 -95 -119 -99 -125
-90 -110 -329 -479 -386 -595 -6 -14 -17 -31 -24 -38 -7 -8 -11 -17 -8 -22 3
-5 2 -10 -2 -12 -9 -4 -103 -194 -103 -208 0 -6 -4 -10 -10 -10 -5 0 -9 -3 -8
-7 2 -13 -14 -67 -25 -82 -6 -7 -12 -18 -14 -25 -1 -6 -23 -69 -48 -141 -26
-71 -48 -137 -50 -145 -2 -8 -10 -42 -19 -75 -9 -33 -19 -69 -21 -80 -14 -60
-16 -72 -21 -95 -2 -14 -7 -36 -11 -50 -3 -14 -6 -28 -5 -33 1 -4 -2 -26 -8
-50 -16 -75 -24 -178 -24 -327 0 -134 4 -187 19 -265 4 -16 8 -39 9 -50 2 -11
6 -27 9 -35 3 -8 11 -33 17 -55 12 -42 14 -47 54 -138 91 -207 309 -429 521
-529 28 -12 53 -27 57 -33 4 -5 8 -7 8 -2 0 4 10 1 23 -7 42 -26 312 -110 387
-121 14 -2 37 -6 53 -9 45 -10 80 -16 122 -21 22 -3 63 -8 90 -13 123 -18 645
-5 920 23 28 3 73 7 100 10 28 2 77 8 110 11 33 4 79 8 102 8 24 1 43 4 43 8
0 4 8 6 18 6 16 -1 83 7 143 17 14 3 41 7 60 9 30 4 174 27 264 42 17 2 37 7
45 9 8 3 31 7 50 9 19 3 46 8 60 11 14 3 36 7 50 9 14 2 45 9 70 16 25 7 57
14 72 15 15 2 44 8 65 14 21 6 49 12 63 15 25 5 65 14 85 20 6 2 28 7 50 11
55 12 55 12 58 15 2 2 33 9 62 15 11 2 52 13 90 25 39 11 81 23 95 26 30 6 40
9 60 17 12 5 68 21 115 33 6 1 48 14 95 29 47 14 92 28 100 30 8 2 80 25 160
51 80 26 151 47 158 47 6 0 12 5 12 10 0 6 3 8 6 4 4 -3 19 0 35 9 16 8 29 12
29 10 0 -3 28 5 62 18 35 13 106 38 158 55 52 18 104 36 115 41 11 5 54 20 95
35 41 14 84 30 95 35 11 5 63 25 115 45 52 20 111 43 130 50 97 40 401 165
443 184 26 11 49 21 52 21 2 1 42 18 87 39 46 21 106 49 133 61 28 12 97 45
154 71 57 27 105 49 107 49 3 0 22 11 44 25 22 14 40 23 40 20 0 -2 47 20 105
50 58 30 105 51 105 47 0 -4 4 -2 8 3 11 15 72 47 72 38 0 -4 5 0 11 10 5 9
16 17 23 17 8 0 49 20 92 44 44 23 115 62 159 85 44 24 86 47 93 53 6 6 12 7
12 4 0 -4 6 -2 12 4 11 9 65 40 303 174 22 13 122 73 223 134 100 62 186 112
191 112 5 0 11 7 15 15 3 8 10 15 15 15 9 0 310 191 336 213 6 5 37 26 70 48
33 21 78 52 99 67 50 34 73 51 122 83 21 15 49 35 62 45 12 11 45 35 72 54 52
36 215 155 260 189 14 10 122 91 240 180 118 88 220 164 225 168 6 5 64 48
130 97 66 49 125 96 132 103 6 8 14 14 17 13 6 -1 74 47 86 60 3 4 54 42 113
86 60 43 121 89 135 101 15 13 30 23 33 23 3 0 19 11 35 25 16 14 82 65 147
113 65 48 188 140 273 205 85 64 159 117 164 117 4 0 10 4 12 8 2 4 50 44 108
87 58 43 108 84 112 89 5 7 8 7 8 1 0 -6 3 -5 8 1 4 6 80 66 170 132 89 67
168 126 175 132 6 6 41 32 77 58 36 26 74 55 84 64 11 10 23 18 27 18 3 0 22
13 40 30 19 16 37 30 41 30 6 0 80 57 109 85 9 8 21 15 27 15 5 0 12 4 14 8 2
4 39 35 83 67 44 33 87 65 95 72 8 7 53 40 100 75 47 34 87 66 88 70 2 4 10 8
17 8 7 0 15 3 17 8 2 4 44 37 93 74 50 38 95 71 100 76 6 4 33 24 60 45 28 20
55 40 60 45 6 4 28 21 50 37 22 17 42 32 45 35 3 4 28 22 55 41 28 18 52 36
55 39 3 3 27 21 53 40 26 19 62 47 80 62 18 15 35 28 39 28 4 0 13 6 20 13 7
7 85 66 173 132 88 65 162 121 165 124 3 3 12 11 22 16 9 6 52 37 95 70 43 33
91 69 107 80 15 11 36 27 46 35 10 8 28 22 40 30 12 8 28 20 35 27 7 6 28 22
47 35 18 13 40 29 48 36 44 36 200 152 206 152 4 0 16 7 26 17 66 59 -60 -106
-177 -233 -5 -6 -28 -32 -50 -58 -22 -27 -56 -65 -75 -87 -19 -21 -53 -60 -75
-85 -22 -26 -47 -55 -55 -63 -8 -9 -24 -28 -36 -43 -20 -26 -108 -130 -129
-152 -6 -6 -66 -78 -134 -161 -68 -82 -131 -159 -140 -170 -13 -16 -169 -214
-206 -263 -5 -7 -20 -24 -33 -37 -13 -14 -20 -25 -17 -25 4 0 -11 -21 -32 -47
-21 -27 -52 -66 -68 -88 -16 -22 -33 -41 -37 -43 -4 -2 -8 -10 -8 -18 0 -8 -3
-14 -8 -14 -4 0 -18 -18 -32 -40 -14 -22 -28 -40 -32 -40 -4 0 -9 -8 -12 -17
-5 -16 -19 -35 -66 -90 -5 -7 -10 -17 -10 -23 0 -5 -4 -10 -10 -10 -5 0 -10
-7 -10 -15 0 -8 -4 -15 -10 -15 -5 0 -10 -5 -10 -10 0 -6 -5 -16 -10 -23 -47
-55 -60 -74 -60 -84 0 -6 -3 -13 -8 -15 -4 -1 -30 -37 -57 -78 -28 -41 -52
-77 -55 -80 -3 -3 -10 -14 -17 -25 -32 -53 -158 -251 -163 -255 -3 -3 -14 -22
-25 -42 -11 -21 -23 -38 -27 -38 -5 0 -7 -3 -6 -7 1 -5 -11 -28 -27 -53 -34
-53 -84 -139 -133 -230 -19 -36 -43 -76 -52 -90 -9 -14 -24 -38 -32 -55 -53
-106 -131 -251 -139 -262 -6 -6 -12 -18 -14 -25 -8 -35 -18 -58 -24 -58 -4 0
-15 -22 -25 -50 -10 -27 -22 -50 -27 -50 -5 0 -8 -3 -7 -7 1 -5 -14 -42 -34
-83 -19 -42 -46 -100 -59 -130 -48 -113 -71 -139 -180 -198 -58 -32 -224 -126
-249 -141 -14 -9 -180 -105 -265 -153 -22 -13 -42 -25 -45 -28 -3 -3 -16 -11
-30 -18 -22 -11 -131 -76 -170 -102 -8 -6 -34 -20 -57 -32 -24 -12 -43 -26
-43 -30 0 -4 -7 -8 -15 -8 -8 0 -15 -3 -15 -8 0 -4 -15 -13 -32 -21 -18 -8
-35 -17 -38 -21 -4 -6 -79 -53 -165 -103 -11 -7 -22 -15 -25 -18 -3 -4 -23
-16 -45 -28 -45 -25 -261 -164 -287 -186 -10 -8 -18 -13 -18 -11 0 6 -101 -60
-121 -79 -9 -8 -20 -15 -26 -15 -6 0 -26 -13 -44 -30 -19 -16 -37 -30 -42 -30
-10 0 -131 -83 -135 -92 -2 -5 -9 -8 -16 -8 -7 0 -21 -9 -31 -20 -10 -11 -20
-18 -23 -16 -2 3 -10 0 -17 -7 -14 -14 -41 -34 -115 -83 -134 -90 -274 -188
-315 -222 -5 -4 -39 -28 -75 -52 -62 -41 -107 -74 -140 -103 -8 -7 -28 -21
-45 -32 -50 -31 -339 -247 -352 -264 -7 -8 -13 -11 -13 -6 0 5 -12 -3 -27 -16
-23 -21 -123 -99 -211 -164 -8 -5 -25 -20 -38 -32 -14 -13 -27 -23 -30 -23 -4
0 -140 -106 -154 -120 -3 -3 -21 -17 -40 -31 -19 -15 -45 -35 -56 -45 -12 -11
-36 -30 -54 -44 -18 -14 -38 -29 -44 -35 -6 -5 -28 -23 -49 -38 -21 -16 -45
-36 -55 -46 -9 -9 -39 -34 -67 -56 -54 -43 -86 -69 -121 -100 -13 -11 -37 -31
-55 -45 -18 -14 -39 -31 -46 -39 -8 -7 -33 -29 -56 -48 -97 -80 -132 -109
-147 -123 -9 -8 -65 -58 -125 -110 -61 -52 -115 -99 -121 -105 -6 -5 -39 -35
-74 -65 -34 -30 -80 -71 -100 -90 -21 -19 -62 -55 -90 -80 -96 -82 -224 -214
-423 -433 -41 -45 -48 -72 -33 -118 14 -42 54 -63 121 -63 48 0 115 21 115 36
0 5 3 7 8 6 7 -3 497 383 517 407 6 6 17 16 26 21 9 5 34 24 55 42 22 18 101
81 177 142 75 60 144 115 152 122 33 30 45 38 54 38 5 0 11 3 13 8 2 5 86 76
143 120 6 4 58 46 116 92 59 47 164 130 234 185 70 55 132 105 139 110 6 6 40
33 76 60 36 27 72 55 80 62 8 6 53 41 100 77 47 36 90 69 95 73 6 5 28 21 50
38 54 40 63 47 86 68 10 9 19 14 19 10 0 -4 9 3 20 14 11 12 33 30 50 39 16
10 30 22 30 26 0 4 6 8 14 8 8 0 16 4 18 8 4 11 476 357 553 406 17 11 34 25
38 33 4 7 13 13 19 13 5 0 27 14 48 30 21 17 42 30 48 30 6 0 12 4 14 8 3 9
206 152 214 152 3 0 12 6 19 13 25 22 39 32 95 67 30 19 63 42 73 51 10 9 33
25 52 35 19 10 35 22 35 26 0 5 5 8 10 8 12 0 191 120 202 135 4 6 8 6 8 2 0
-4 6 -3 13 3 6 6 27 21 46 33 50 32 56 36 171 111 58 38 132 86 165 107 33 21
65 42 70 46 6 5 17 12 25 16 8 3 47 27 85 52 39 25 86 54 105 65 49 28 74 44
80 50 3 3 73 46 155 95 83 49 152 92 155 95 3 3 23 14 45 25 22 11 42 23 45
27 3 4 18 11 33 17 26 10 27 10 21 -17 -3 -15 -10 -38 -15 -52 -11 -33 -49
-169 -55 -200 -3 -14 -9 -38 -14 -55 -14 -47 -29 -107 -35 -145 -4 -19 -8 -39
-9 -45 -2 -5 -7 -32 -11 -60 -5 -27 -10 -52 -10 -55 -1 -3 -5 -27 -10 -55 -4
-27 -9 -59 -11 -70 -2 -11 -6 -45 -10 -75 -3 -30 -7 -66 -10 -80 -15 -74 -28
-750 -15 -750 3 0 7 -24 7 -53 1 -28 4 -72 7 -97 3 -25 8 -67 12 -95 3 -27 8
-60 10 -72 3 -13 7 -35 10 -50 3 -16 10 -48 15 -73 6 -25 12 -54 15 -65 2 -11
9 -35 14 -54 6 -19 8 -38 5 -42 -3 -5 0 -9 5 -9 6 0 11 -11 11 -24 0 -14 5
-28 10 -31 6 -3 10 -15 10 -25 0 -10 5 -31 11 -47 6 -15 10 -30 11 -33 0 -3 4
-11 10 -18 6 -6 7 -12 4 -12 -4 0 0 -12 8 -27 14 -24 23 -45 37 -88 2 -5 24
-48 49 -95 25 -47 52 -97 59 -113 8 -15 18 -27 23 -27 4 0 8 -4 8 -9 0 -12 61
-105 72 -109 4 -2 8 -10 8 -17 0 -7 3 -15 8 -17 4 -1 27 -28 52 -58 45 -55
163 -182 188 -204 8 -6 25 -21 38 -33 54 -50 165 -133 264 -199 107 -71 420
-234 450 -234 9 0 20 -4 25 -8 6 -5 46 -21 90 -36 44 -15 87 -30 95 -33 8 -4
20 -7 25 -8 6 -2 46 -13 90 -25 44 -12 91 -23 105 -26 14 -2 45 -9 70 -14 61
-13 98 -20 145 -26 22 -3 48 -7 57 -10 9 -3 41 -7 70 -9 29 -3 80 -8 113 -12
79 -10 682 -10 810 0 125 10 166 13 235 22 30 3 71 8 90 10 19 3 49 7 65 9 17
3 48 8 70 10 22 3 41 5 43 7 1 1 11 3 22 4 11 1 21 3 23 5 1 1 16 3 32 5 39 4
106 15 127 21 10 3 30 7 45 10 16 2 39 7 53 10 14 3 36 8 50 10 53 10 301 75
415 109 66 20 134 40 150 44 17 4 40 13 53 20 12 6 22 9 22 5 0 -3 6 -2 13 3
13 11 122 46 133 43 4 -1 10 2 13 7 3 5 47 24 96 42 50 19 113 44 142 57 28
13 54 24 56 24 2 0 35 14 73 32 38 17 72 31 77 30 4 -1 7 2 7 8 0 6 3 9 8 8 9
-3 196 89 235 115 15 10 27 16 27 13 0 -8 234 135 238 146 2 4 10 8 18 8 8 0
14 5 14 10 0 6 5 10 10 10 10 0 152 101 178 127 7 7 16 13 20 13 12 0 69 54
87 82 21 34 14 97 -15 138 -23 33 -86 60 -127 55 -33 -4 -161 -64 -278 -130
-44 -25 -91 -51 -105 -57 -14 -7 -27 -15 -30 -18 -3 -3 -32 -19 -65 -35 -33
-16 -68 -36 -77 -44 -10 -8 -18 -11 -18 -8 0 3 -48 -18 -107 -47 -91 -45 -188
-89 -278 -125 -11 -5 -31 -13 -45 -19 -65 -28 -237 -95 -255 -98 -5 -1 -35
-11 -65 -22 -81 -30 -312 -103 -335 -106 -11 -2 -27 -6 -35 -9 -21 -9 -194
-53 -265 -68 -33 -7 -62 -13 -65 -14 -6 -1 -121 -28 -135 -31 -5 -1 -30 -5
-55 -8 -25 -4 -52 -9 -60 -11 -8 -2 -33 -6 -55 -10 -22 -3 -51 -7 -65 -10 -59
-9 -127 -18 -160 -20 -19 -2 -35 -4 -35 -5 0 -2 -33 -5 -140 -15 -38 -3 -88
-8 -110 -10 -22 -3 -131 -7 -243 -9 -111 -3 -206 -8 -211 -11 -5 -3 -12 -2
-15 3 -2 4 -44 9 -93 10 -109 4 -147 7 -162 16 -6 4 -11 2 -11 -4 0 -6 -4 -9
-9 -6 -8 6 -41 11 -111 20 -68 9 -115 17 -160 26 -46 10 -82 17 -135 26 -103
19 -417 138 -486 186 -14 9 -28 15 -31 12 -3 -2 -11 2 -18 11 -7 8 -16 15 -21
15 -12 0 -163 107 -200 142 -8 7 -33 30 -57 50 -23 21 -39 38 -35 38 5 0 -5 9
-22 20 -16 11 -26 20 -21 20 4 0 -8 17 -29 38 -20 20 -44 49 -53 64 -9 16 -20
28 -24 28 -4 0 -8 4 -8 9 0 5 -18 37 -40 70 -67 100 -158 296 -162 349 -1 6
-4 12 -8 12 -4 0 -7 6 -8 13 0 6 -14 63 -31 126 -17 63 -32 128 -35 145 -2 17
-5 31 -6 31 0 0 -3 19 -6 43 -2 23 -6 61 -8 85 -3 23 -5 42 -6 42 -6 0 -13
192 -14 380 0 206 6 364 19 495 3 25 7 65 9 90 5 45 13 113 21 160 17 115 27
179 32 200 2 14 6 34 8 45 2 11 6 30 9 41 2 12 7 38 10 59 4 20 8 40 10 44 2
3 7 23 10 44 3 21 15 73 27 115 11 42 22 86 25 97 2 11 20 72 39 135 20 63 37
122 40 130 2 8 4 17 6 20 1 3 3 10 4 15 1 6 5 17 8 25 3 8 25 67 48 130 29 79
50 123 71 142 30 28 308 172 308 160 0 -4 4 -2 8 4 4 6 32 23 62 37 30 14 91
41 135 62 44 20 106 50 137 66 31 16 64 29 73 29 8 0 15 4 15 10 0 5 3 9 8 8
4 -1 21 5 37 12 17 7 32 14 35 15 3 1 22 9 43 19 102 45 148 65 152 66 3 0 24
9 47 19 24 10 111 44 193 75 83 32 164 64 180 71 17 7 41 16 55 20 14 3 34 10
45 15 39 17 486 159 525 166 8 2 85 21 170 43 85 22 166 42 180 45 14 2 69 14
124 25 118 25 141 30 186 37 19 3 46 7 60 10 14 2 45 7 70 10 25 3 56 7 70 9
14 3 54 7 90 10 36 4 76 8 90 10 14 3 56 7 95 11 38 3 88 7 110 9 22 2 96 7
165 10 69 3 148 11 175 17 28 6 52 11 55 10 3 0 10 4 15 8 6 5 31 14 55 20 67
16 71 17 118 34 23 8 46 16 50 17 16 4 199 57 222 65 17 6 -57 55 -138 91 -66
29 -187 60 -272 69 -133 14 -507 8 -630 -11 -14 -2 -49 -7 -79 -10 -30 -4 -62
-8 -71 -10 -9 -2 -41 -6 -70 -10 -29 -4 -62 -9 -74 -11 -12 -2 -37 -7 -56 -10
-32 -5 -58 -9 -115 -20 -11 -2 -42 -8 -70 -14 -63 -13 -105 -21 -130 -26 -11
-1 -30 -5 -42 -8 -13 -4 -31 -8 -40 -10 -10 -2 -65 -16 -123 -31 -58 -14 -114
-27 -125 -29 -11 -2 -20 -4 -20 -5 0 -3 -17 -7 -59 -16 -16 -3 -37 -10 -46
-15 -10 -5 -20 -7 -23 -3 -4 3 -13 0 -22 -7 -8 -7 -15 -9 -15 -6 0 4 -8 2 -17
-3 -10 -5 -31 -11 -48 -14 -16 -3 -115 -33 -220 -67 -104 -33 -194 -62 -200
-64 -5 -2 -23 -8 -38 -14 -16 -7 -34 -12 -41 -12 -7 0 -16 -3 -20 -7 -3 -4
-12 -8 -19 -9 -7 -1 -25 -8 -42 -15 -16 -7 -32 -13 -35 -14 -21 -5 -90 -30
-115 -41 -16 -7 -70 -29 -120 -47 -73 -28 -442 -187 -700 -301 -81 -36 -115
-49 -120 -45 -5 5 70 156 134 268 22 41 41 78 41 82 0 5 4 9 8 9 4 0 14 16 21
35 7 19 17 35 23 35 6 0 9 3 6 6 -4 3 16 44 43 91 27 46 49 86 49 88 0 10 284
500 292 503 4 2 8 8 8 13 0 14 73 130 239 377 86 129 161 241 166 250 6 9 20
27 33 41 12 14 22 29 22 32 0 3 8 15 18 27 9 11 24 30 32 42 29 43 103 142
189 254 63 82 322 409 331 416 3 3 25 30 50 60 25 30 52 64 61 75 25 30 212
248 224 261 5 6 33 37 60 69 90 105 100 116 130 149 17 18 59 66 95 106 36 40
82 91 103 114 20 22 37 44 37 49 0 4 5 5 10 2 6 -3 10 -2 10 3 0 11 24 38 225
257 90 97 211 232 262 291 91 106 122 141 146 166 15 16 27 31 27 34 0 3 10
15 23 28 12 12 42 47 67 76 25 30 55 66 68 80 12 14 36 41 53 60 46 53 62 89
62 146 1 123 -104 193 -224 149z"/>
</g>
</svg>
