<svg
   version="1.1"
   id="svg2"
   width="622.61108"
   height="83.696838"
   viewBox="0 0 622.61108 83.696838"
   xmlns="http://www.w3.org/2000/svg">
  <g
     transform="translate(-151.12909,-574.41272)">
    <path
       fill="currentColor"
       d="m 183.12892,656.80167 c -8.35839,-1.81822 -13.80864,-4.79983 -19.87176,-10.87102 -9.6173,-9.63012 -13.73879,-22.7587 -11.55773,-36.81596 2.12637,-13.70478 10.29086,-24.86865 22.62958,-30.94298 5.58077,-2.74741 7.83319,-3.25445 16.25953,-3.66021 11.3138,-0.5448 18.80566,1.13045 26.25698,5.87129 8.20079,5.21769 8.34146,5.68097 3.41451,11.24582 l -4.28391,4.83854 -5.70264,-3.78634 c -21.52131,-14.28934 -46.5918,0.66245 -44.1925,26.35597 1.37334,14.70681 13.31824,26.25328 27.15919,26.25328 5.27456,0 12.95582,-2.80409 17.78771,-6.49351 2.52577,-1.92857 4.97798,-3.50649 5.44935,-3.50649 0.47137,0 2.61317,1.79843 4.75954,3.99651 l 3.90249,3.99652 -3.28871,3.39308 c -4.58907,4.73472 -11.85995,8.45354 -19.82999,10.1424 -8.1396,1.72478 -10.89642,1.72231 -18.89164,-0.0169 z m 95.86241,-0.0281 c -12.59371,-2.73577 -22.77021,-10.69968 -28.47398,-22.2831 -3.12823,-6.35293 -3.27718,-7.17914 -3.27718,-18.17793 0,-10.88365 0.17704,-11.89625 3.19313,-18.26326 4.13281,-8.72443 11.34169,-15.93331 20.06612,-20.06612 6.37523,-3.01998 7.36434,-3.19218 18.24075,-3.17553 14.31798,0.0219 19.87306,1.96111 28.8254,10.06251 7.15516,6.47505 11.42342,14.41214 13.1778,24.5049 2.24895,12.93796 -2.63698,27.49549 -12.2935,36.62822 -6.54984,6.19457 -11.87302,9.00135 -20.56572,10.84382 -8.02363,1.70065 -10.77507,1.68994 -18.89282,-0.0735 z m 22.43115,-14.82255 c 9.64872,-4.88938 14.68148,-13.64658 14.74736,-25.66099 0.0315,-5.75188 -0.49185,-8.66542 -2.24549,-12.5 -4.71949,-10.31977 -13.8862,-16.4725 -24.56816,-16.49023 -9.14765,-0.0152 -13.40739,1.70614 -19.67656,7.95113 -6.26873,6.24457 -8.41837,11.6806 -8.31977,21.0391 0.22846,21.68177 21.29143,35.17307 40.06262,25.66099 z m 59.31769,-26.25452 v -40.59357 l 23.25,0.38158 c 19.35207,0.3176 23.91159,0.67378 27.19617,2.1245 10.47253,4.62546 15.54333,12.36165 15.5221,23.68105 -0.0199,10.61951 -5.04201,18.55704 -14.2823,22.57351 -2.30228,1.00073 -4.32379,1.90641 -4.49224,2.01261 -0.16845,0.1062 4.47837,6.88027 10.32627,15.05349 l 10.63256,14.86039 -7.82628,0.31608 c -9.07597,0.36656 -7.252,1.84947 -20.0686,-16.31608 l -7.76098,-11 -9.24835,-0.28753 -9.24835,-0.28752 v 14.03752 14.03753 h -7 -7 z m 44.93834,-2.23371 c 6.28511,-3.37074 8.83124,-11.85005 5.49534,-18.30097 -2.73189,-5.28291 -7.9497,-6.82455 -23.18368,-6.8498 l -13.25,-0.022 v 13.5 13.5 h 13.7656 c 11.4221,0 14.34564,-0.31108 17.17274,-1.82727 z m 51.06166,2.32727 v -40.5 h 7.5 7.5 v 40.5 40.5 h -7.5 -7.5 z m 48,0 v -40.5 h 6.7599 6.75991 l 21.49009,27.80528 21.4901,27.80527 0.26557,-27.80527 0.26558,-27.80528 h 6.98442 6.98443 v 40.5 40.5 h -5.92806 -5.92807 l -22.32193,-28.75 -22.32194,-28.75 -0.26534,28.75 -0.26533,28.75 h -6.98467 -6.98466 z m 104,-0.0457 v -40.54569 l 6.75,0.29569 6.75,0.29569 21.5,27.67025 21.5,27.67025 0.26557,-27.92025 0.26558,-27.92025 h 6.98442 6.98443 v 40.5 40.5 l -6.25,-0.0627 -6.25,-0.0627 -22,-28.60524 -22,-28.60524 -0.26534,28.66796 -0.26533,28.66796 h -6.98467 -6.98466 V 615.7444 Z m 104,0.0457 v -40.5 h 30.04772 30.04771 l -0.29771,6.25 -0.29772,6.25 -22.75,0.26877 -22.75,0.26878 v 10.48122 10.48123 h 20.54772 20.54771 l -0.29771,6.25 -0.29772,6.25 -20.25,0.27071 -20.25,0.2707 v 10.9793 10.97929 h 23.5 23.5 v 6 6 h -30.5 -30.5 z"
    />
  </g>
</svg>
