<svg version="1.1" id="Livello_1" xmlns="http://www.w3.org/2000/svg" xmlns:xlink="http://www.w3.org/1999/xlink" x="0px"
     y="0px"
     viewBox="0 0 46.2 14.1" style="enable-background:new 0 0 46.2 14.1;" xml:space="preserve"
     fill="currentColor"
>
<g>
	<path d="M6.3,11.6c0.3,0,0.6,0,1,0s0.8-0.1,1.2-0.4c0.1-0.1,0.2-0.1,0.2-0.2c0.1-0.2,0.1-0.5,0.1-0.8c0-0.4-0.4-0.7-0.8-0.8
		C7.5,9.2,7.2,9.2,6.8,9.2c-0.7,0-1.4,0.1-2,0.3C4.4,9.6,4.3,10,4.3,10.1c-0.1,0.3-0.1,0.6,0.2,0.9c0.3,0.3,0.6,0.5,1,0.5
		C5.7,11.6,6,11.6,6.3,11.6 M6.8,13.8c-0.6,0-3.8,0.1-5.4-0.8C-0.1,12.3,0,10.8,0,10.5c0.4-2.2,2.4-2.9,3.1-3.1
		c0.4-0.1,0.8-0.2,1.2-0.2C5,7.1,5.7,7,6.4,7s1.4,0,2.2,0c0.2,0,0.1-0.5,0.1-0.6c0-0.7,0-1.4,0-2.1c-0.1-0.7,0-1.1-0.1-1.7
		c-0.1-3,0.3-3.7,1.5-0.4c0.4,1.2,0.8,2.3,0.9,2.5c0.3,0.8,0.6,1.6,0.8,2.4c0,0.1,0.4,1.1,0.4,1.3c0.2,0.6,0.4,1.3,0.5,1.9
		c0.1,0.4,0.4,1.7,0.1,2.2C12.1,13.9,7.2,13.8,6.8,13.8"/>
  <path d="M37.2,8.4c-0.2,0.1-1,0.3-1.1,1.1v0.2c0.1,0.1,0.7-0.1,0.8-0.2c0.5-0.1,1.1-0.3,1.6-0.4C38.7,9.1,38.9,9,39,9s0-0.1,0-0.2
		C38.7,7.9,37.3,8.4,37.2,8.4 M34.1,11.6c0,0.1,0,0.2,0.1,0.2c0.5-0.1,0.5-0.2,0.5-0.5c0-0.1-0.1-1,0-1.6c0.1-1,0.4-1.7,1.3-2.2
		c0.6-0.4,2.5-0.7,3.6,0.1c0.1,0.1,0.6,0.5,0.9,1.3c0.1,0.2,0.2,0.4,0.1,0.6c-0.1,0.2-1.3,0.6-1.7,0.7c-0.5,0.1-1.1,0.3-1.6,0.4
		c-0.2,0.1-0.6,0.1-0.8,0.2c-0.2,0-0.3,0.1-0.3,0.4c0,0.3,0,1.2,0.6,1.3c0.4,0.1,1.1,0,1.5-0.2C39,12,39.6,11.5,40,11
		c0.6-0.6,0.9-0.6,1-0.5c0.2,0.1,0.3,0.2,0.3,0.4c0.1,0.3,0.2,1.2,0.9,1.4c0.3,0.1,0.6,0.1,0.8,0.2c0.2,0,0.5,0,0.7,0
		c0.8-0.1,0.9-0.4,0.8-0.8c-0.1-0.4-1.6-1-2.1-1.2c-0.3-0.2-1.3-0.6-1.2-1.6c0.1-0.8,0.5-1.2,1.1-1.5s2-0.2,2.7,0
		c0.2,0.1,1.5,0.4,1.1,1.2c-0.1,0-0.1,0.1-0.2,0.2c-0.2,0.1-0.3,0.1-0.5,0.1c-0.4-0.1-0.7-0.3-1.1-0.3c-0.3-0.1-0.9-0.2-1.2,0
		c-0.1,0-0.6,0.4,0,0.8c0.1,0,2.2,0.9,2.7,1.5c0.3,0.3,0.5,0.8,0.4,1.1c0,0.3-0.1,1.5-1.5,1.8c-0.7,0.1-1.6,0.1-2.2,0.1
		c-0.6-0.1-1.3-0.4-1.4-0.5c-0.2-0.2-0.4-0.5-0.5-0.7c0-0.1-0.1-0.1-0.1,0c-0.2,0.2-0.4,0.4-0.7,0.6c-0.2,0.1-0.4,0.3-1.1,0.5
		c-0.5,0.1-1.2,0.3-2.2,0.2c-0.2,0-0.8-0.4-1-0.5c-0.1-0.1-0.3-0.4-0.5-0.3c-0.1,0-0.8,0.4-1.2,0.6c-0.3,0.1-0.7,0.1-0.8-0.2
		c-0.1-0.4-0.2-1.2-0.2-1.5c0-0.5-0.2-2.4-0.3-2.8c-0.1-0.6-0.6-0.6-0.9-0.6s-1.1,0.1-1.3,0.5c-0.1,0.1-0.2,0.3-0.2,0.6
		c0,0.7,0.1,3,0.1,3.6c0,0.3-0.1,0.5-0.4,0.6c-0.1,0-0.3,0-0.4,0c-0.3,0-0.5-0.1-0.5-0.4c0-0.5,0-0.6,0-1.1c0,0,0-0.2-0.4,0.1
		c-0.3,0.3-0.7,0.6-1,0.9c-0.2,0.2-0.3,0.3-0.5,0.4c-0.1,0.1-0.3,0.2-0.4,0.1c-0.3-0.1-0.4-0.8-0.4-1c-0.1-0.8-0.1-1.6-0.2-2.4
		c-0.1-0.6-0.1-1.3-0.1-2c0-0.6,0.1-1,0.2-1.1c0.1-0.2,0.8-0.4,1,0.1c0.1,0.1,0.1,0.4,0.1,0.5c0.1,0.9,0.2,3.7,0.3,3.7
		c0.1,0,1-0.8,1.2-1c0.1-0.1,0.1-0.4,0.1-0.6c0-0.7-0.1-1.4,0-2.1c0-0.2,0-0.4,0-0.6c0-0.4,0.5-0.7,1.1-0.5c0.1,0,0.2,0.1,0.2,0.2
		s0,0.3,0.1,0.4c0,0.1,0.1,0.1,0.2,0.1s0.1,0,0.2-0.1c1-0.5,2.1-0.4,2.7-0.1c0.4,0.2,0.6,0.6,0.6,0.8c0.1,0.6,0.1,1.2,0.2,1.8
		C34,10.1,34.1,11.6,34.1,11.6"/>
  <path d="M27.3,5.2c0,0.2-0.1,0.4-0.2,0.6S26.7,6.1,26.4,6c-0.1,0-0.3-0.1-0.4-0.3c-0.2-0.4-0.1-0.7,0.1-1c0.1-0.2,0.3-0.2,0.5-0.2
		C27,4.6,27.3,4.9,27.3,5.2"/>
  <path d="M16.1,12.4c-0.8,0.3-1.9,0.2-1.4-0.8c0.2-0.5,0.7-0.9,1.1-1.2c0.6-0.4,0.8-0.5,0.9-0.3c0,0,0.4,0.8,0.5,1.2
		C17.6,12,16.2,12.3,16.1,12.4 M25.8,7c0-0.2-0.1-0.3-0.2-0.3s-0.3-0.1-0.5,0S24.7,7,24.6,7.2C24,8,23.5,8.9,23.1,9.8
		c-0.2,0.4-0.4,0.8-0.6,1.2c0,0.1-0.1,0.2-0.2,0.2c-0.1,0.2-0.1,0.2-0.3,0c-0.1-0.1-0.2-0.2-0.2-0.3c-0.5-0.9-1-1.9-1.5-2.8
		c-0.1-0.2-0.2-0.4-0.3-0.6c0,0,0,0,0-0.1c-0.1-0.1-0.3-0.2-0.5-0.1s-0.5,0.2-1,0.4l0,0c-0.3,0.1-0.7,0.3-0.9,0.4l0,0
		c-0.1,0-0.3,0.1-0.4,0.2c0,0-0.4-0.8-0.7-1.1c-0.2-0.2-0.4-0.4-0.8-0.4c-0.2,0-0.4,0-0.6,0c-0.5,0.1-1.1,0.4-1.5,0.8
		c-0.7,0.6,0.2,1.2,0.6,0.9c0.3-0.2,0.4-0.3,0.7-0.5c0.2-0.1,0.5-0.1,0.7,0c0.2,0.1,0.3,0.4,0.3,0.6c0,0.1,0,0.1-0.1,0.2
		c-0.1,0-0.8,0.4-0.9,0.5c-0.7,0.5-1.6,1-1.9,2.5c-0.1,0.4-0.1,1.4,0.8,1.7c0.5,0.2,1.2,0.2,1.8,0.1c0.5-0.1,1.4-0.4,1.8-0.7
		c0,0,0,0,0.1,0c0.2-0.1,0.2-0.1,0.3,0.1c0.1,0.2,0.2,0.3,0.3,0.5c0.2,0.2,0.6,0.2,0.7,0.1c0.8-0.3,0-1.7,0-1.8
		c-0.3-0.7-0.8-1.7-1.1-2.4c-0.1-0.1,0.1-0.2,0.3-0.3c0.4-0.2,0.5-0.3,1.1-0.5c0.1-0.1,0.2,0,0.2,0.1c0.2,0.5,0.5,1.2,0.7,1.7
		c0.4,0.8,0.8,1.7,1.2,2.4c0.1,0.2,0.3,0.4,0.4,0.6c0.2,0.2,0.5,0.3,0.8,0.1c0.1,0,0.3-0.2,0.3-0.3c0.2-0.4,0.3-0.6,0.4-1
		c0.1-0.3,1.1-2.5,1.5-3.2c0.3-0.6,0.6-1.2,0.9-1.9C25.8,7.3,25.8,7.2,25.8,7"/>
</g>
</svg>
