<svg
   version="1.1"
   id="svg2"
   width="344.95999"
   height="34.524017"
   viewBox="0 0 344.95999 34.524017"
   xmlns="http://www.w3.org/2000/svg">
  <g
     id="g8"
     transform="translate(-70.869995,-134.90881)">
    <path
       fill="currentColor"
       d="m 269.22845,169.026 c -3.32316,-1.05979 -5.959,-3.60107 -7.36958,-7.1052 -0.72885,-1.81061 -0.74697,-2.12005 -0.84395,-14.41034 l -0.0991,-12.56 h 3.19924 3.19924 l 0.0979,11.92 c 0.0953,11.60974 0.11636,11.95461 0.80892,13.24975 0.95043,1.77737 2.02194,2.56115 4.08766,2.98998 3.12344,0.64843 5.93272,-0.38997 7.24355,-2.67745 0.75111,-1.31074 0.75912,-1.42699 0.91772,-13.32228 l 0.16,-12 3.28,-0.0912 3.28,-0.0912 -0.006,11.29119 c -0.006,12.24693 -0.19649,14.13673 -1.72974,17.16245 -1.13311,2.23609 -2.78347,3.78926 -5.27635,4.96562 -1.92852,0.91005 -2.42224,1.00157 -5.78835,1.07302 -2.55461,0.0542 -4.13308,-0.0664 -5.16155,-0.39435 z M 70.869997,151.91046 v -16.96 h 3.353635 3.353635 l 0.08637,6.72439 0.08636,6.7244 6.213526,-6.7244 6.213527,-6.72439 h 4.463104 4.463107 l -4.172896,4.4 c -2.295094,2.42 -5.335578,5.54862 -6.756634,6.95249 -1.421052,1.40387 -2.583734,2.67831 -2.583734,2.83207 0,0.15377 3.066051,4.47715 6.813443,9.60751 3.747395,5.13036 6.923895,9.50793 7.058887,9.72793 0.191769,0.31253 -0.685863,0.39674 -4.013444,0.38508 l -4.258886,-0.0149 -5.099478,-7.34508 c -2.804714,-4.03979 -5.186128,-7.34508 -5.292029,-7.34508 -0.105904,0 -0.871139,0.68895 -1.700522,1.53099 l -1.507971,1.53099 v 5.82901 5.82901 h -3.36 -3.36 z m 31.680003,0 v -16.96 h 12.48 12.48 v 3.04 3.04 h -9.12 -9.12 v 3.68 3.68 h 7.84 7.84 v 3.04 3.04 h -7.84 -7.84 v 4.16 4.16 h 9.28 9.28 v 3.04 3.04 h -12.64 -12.64 z m 32.56916,0.08 -5.55039,-16.88 3.3327,-0.0913 c 1.83298,-0.0502 3.39766,-0.0263 3.47708,0.0531 0.0794,0.0794 1.80234,5.73648 3.82873,12.57125 2.02639,6.83478 3.78174,12.60246 3.90077,12.81706 0.11903,0.21461 1.93122,-5.43739 4.02709,-12.56 l 3.81067,-12.95019 h 3.49633 c 2.66548,0 3.45991,0.0951 3.34306,0.4 -0.61402,1.6024 -10.7952,32.87578 -10.7952,33.15944 0,0.2464 -1.15891,0.36056 -3.66023,0.36056 h -3.66023 z m 27.27084,-0.08 v -16.96 h 3.2 3.2 v 16.96 16.96 h -3.2 -3.2 z m 12.8,0 v -16.96 h 3.9343 3.9343 l 6.67341,11.6906 c 3.67038,6.42983 6.79595,11.76633 6.9457,11.85889 0.14976,0.0926 0.27229,-5.16822 0.27229,-11.69061 v -11.85888 h 3.2 3.2 v 16.96 16.96 h -3.93148 -3.93147 l -6.68736,-11.69748 c -3.67805,-6.43361 -6.80488,-11.77011 -6.94852,-11.85888 -0.14364,-0.0888 -0.26117,5.17508 -0.26117,11.69747 v 11.85889 h -3.2 -3.2 z m 33.6,13.6 v -3.36 h 3.52 3.52 v 3.36 3.36 h -3.52 -3.52 z m 12.48,-13.6 v -16.96 l 4.88,0.004 4.88,0.004 3.32943,12.07634 c 1.83118,6.64199 3.43686,12.28486 3.56817,12.5397 0.28087,0.5451 -0.0137,1.49878 4.09622,-13.26335 l 3.11815,-11.2 4.86402,-0.0883 4.86401,-0.0883 v 16.96833 16.96834 h -3.19615 -3.19615 l -0.0839,-12.05675 -0.0838,-12.05673 -3.33606,12.05674 -3.33606,12.05675 -3.54394,-0.004 -3.54394,-0.004 -3.1722,-11.59567 c -1.74471,-6.37818 -3.28833,-11.81223 -3.43027,-12.07623 -0.14194,-0.264 -0.26245,4.956 -0.2678,11.6 l -0.01,12.08 h -3.2 -3.2 z m 71.68,-0.0208 v -16.98085 l 9.84,0.10085 9.84,0.10084 1.96036,0.90591 c 3.8596,1.78358 5.67603,4.66926 5.67405,9.01409 -0.002,3.43089 -0.96602,5.29417 -3.79231,7.32661 -0.62506,0.44949 -0.61942,0.47326 0.28009,1.18082 0.5049,0.39715 1.25855,1.45345 1.67478,2.34733 0.70576,1.51568 0.75699,2.00813 0.7599,7.30524 l 0.003,5.67999 h -3.2 -3.2 l -0.001,-5.2 c -0.002,-7.75713 -0.16934,-7.9151 -8.3988,-7.91821 l -4.72007,-0.002 v 6.56 6.56 h -3.36 -3.36 v -16.98084 z m 17.42499,-2.25393 c 0.69574,-0.19316 1.73974,-0.82596 2.32,-1.40622 0.93596,-0.93596 1.05501,-1.25236 1.05501,-2.80386 0,-1.30945 -0.1743,-1.97043 -0.69373,-2.63077 -1.19936,-1.52476 -2.29894,-1.76439 -8.09599,-1.76439 H 299.67 v 4.48 4.48 l 4.72,-0.002 c 2.596,-9.6e-4 5.28924,-0.15983 5.98499,-0.35298 z m 15.21501,2.25649 v -16.97828 l 9.04806,0.0983 9.04807,0.0983 2.14054,1.05445 c 3.76995,1.85709 5.46439,4.85962 5.45466,9.66555 -0.0106,5.18369 -2.22608,8.55682 -6.72624,10.24055 -1.4544,0.54416 -2.49411,0.63945 -6.97709,0.63945 h -5.268 v 6.08 6.08 h -3.36 -3.36 z m 16.80326,-1.40246 c 1.60106,-0.66897 2.39511,-2.16328 2.39082,-4.49926 -0.004,-2.28814 -0.43379,-3.2517 -1.88608,-4.2304 -1.00624,-0.67813 -1.41798,-0.72961 -5.83533,-0.72961 H 332.31 v 4.96 4.96 h 4.49027 c 3.18403,0 4.81107,-0.13403 5.59299,-0.46074 z m 13.27674,1.42073 v -16.96 h 3.36 3.36 v 6.72 6.72 h 7.36 7.36 v -6.72 -6.72 h 3.2 3.2 v 16.96 16.96 l -3.28,1.5e-4 -3.28,1.5e-4 v -7.12015 -7.12015 l -7.28,-0.086 -7.28,-0.086 v 7.20601 7.20601 h -3.36 -3.36 z m 42.24,10.4264 v -6.53361 l -5.6,-10.29279 c -3.08,-5.66104 -5.6,-10.35292 -5.6,-10.4264 0,-0.0735 1.62,-0.13169 3.6,-0.12935 l 3.6,0.004 3.64656,7.21664 3.64656,7.21664 1.73078,-3.30089 c 0.95194,-1.81549 2.62298,-5.06427 3.71344,-7.21952 l 1.98266,-3.91862 3.6,-0.001 c 1.98,-6.4e-4 3.6,0.067 3.6,0.1505 0,0.0835 -2.52,4.77535 -5.6,10.42627 l -5.6,10.27439 v 6.53373 6.53373 h -3.36 -3.36 v -6.5336 z"
       id="path170" />
  </g>
</svg>
