<svg version="1.1" id="layer" xmlns="http://www.w3.org/2000/svg"
     viewBox="-153 -46 652 652" style="enable-background:new -153 -46 652 652;" xml:space="preserve" fill="currentColor">
<path d="M-124.1,290.4h-7.7c0,0-1.7,19.5,29.4,19.4c27.5-0.1,28-15.7,28-16.9c0-7.2-5.5-13.6-27.3-15.3c-21.8-1.7-20.7-7.4-20.7-8.2
	c0-4.3,5.9-9.6,18.8-9.3c12.3,0.3,18.2,5.4,18.7,11.6h7.5c0,0,1.3-17.5-26.4-17.8c-24.4-0.3-26.1,13.2-26.2,15.4
	c-0.1,3,0.5,13.9,26.5,15.2c8,0.4,21.1,1.6,21.1,8.8c0,5.1-6,10.3-19.5,10.6C-116.5,304-123.2,298.4-124.1,290.4 M460.9,300.5v7.7
	h7.4v-36.9c-0.2-8.3-4.6-17.7-25.7-17.6c-25.2,0.1-26.3,14.9-26.9,18.1h7.5c0,0-0.4-12.4,19.4-12c18.8,0.4,18,9,18,9.3
	c-0.1,1.2,0.8,8-20.9,8.8c-21.7,0.8-26.7,9-26.4,15.5c0.3,6.9,6.2,17,26.2,16C455,308.6,458.9,302,460.9,300.5 M460.9,279v10.3
	c0,0-2.8,13.3-21.7,13.8c-16.2,0.4-17.6-7-17.6-9.7c0-2.4,0-8.8,17.7-9.1C451.9,284.2,457.9,280.9,460.9,279 M373,261.6v-6.2h-7.4
	v52.7h7.4v-35.3c0,0,1.8-13,17.4-13.2c14-0.1,14.2,11.4,14.4,12h7.2c0,0,0.5-18.6-21.6-17.9C385.7,253.9,375.9,256.6,373,261.6
	 M216.7,276.8v31.3h-7.4v-52.7h7.4v6.3c0,0,8-8.7,20.8-8.4c12.8,0.4,16,7.5,18.2,9.8c0,0,7.9-9.4,22.1-9.7
	c15.1-0.3,20.3,11.4,20.3,14.6v40.1h-7.4v-36.4c0-1.8-1.3-11.9-13.6-12c-13-0.1-18.6,10.2-19.3,14v34.4h-7.4v-34.8
	c0.2-2.6-2.5-13.9-14.5-13.5C219.8,260.3,216.5,272,216.7,276.8 M172.6,253.1c-22.9-0.3-29.6,19.8-30,24.9c-1.1,12.2,4.9,31,30,31.8
	c23,0.7,29-19.4,29-19.4h-7.9c-2.8,7.8-11.8,13.9-21,13.3c-22.3-1.5-22.2-20.3-22.2-20.3h52.8C204.1,272.2,196.6,253.4,172.6,253.1
	 M194.9,277.5h-44.2c0,0,1.5-17.4,21.8-18C191,259,194.9,275.8,194.9,277.5 M305,255.4h7.4V294c0,1,3.9,9.6,17.5,9.2
	c14.4-0.4,20.7-11,20.9-15.2v-32.6h7.4v52.7h-7.4v-7.3c0,0-7,8.1-21.6,9.1c-14.6,0.9-23.7-8.1-24.2-16.6V255.4z M83.8,255.4h7.4V294
	c0,1,3.9,9.6,17.5,9.2c14.4-0.4,20.7-11,20.9-15.2v-32.6h7.4v52.7h-7.4v-7.3c0,0-7,8.1-21.6,9.1c-14.6,0.9-23.7-8.1-24.2-16.6V255.4
	z M-9.9,255.4h7.4V294c0,1,3.8,9.6,17.5,9.2c14.4-0.4,20.7-11,20.9-15.2v-32.6h7.4v52.7h-7.4v-7.3c0,0-7,8.1-21.6,9.1
	c-14.6,0.9-23.8-8.1-24.2-16.6V255.4z M-16.5,269.9v38.3h-7.4v-35.5c-0.3-6.9-6.8-12.7-15.8-12.3c-22.2,1-22.5,16.4-22.5,16.4v31.4
	h-7.4v-66.4h7.4v21.5c0,0,6.2-9.1,23-9.7C-24.3,253.1-17,263.2-16.5,269.9"/>
</svg>
