<?xml version="1.0" encoding="utf-8"?>
<!-- Generator: Adobe Illustrator 19.0.0, SVG Export Plug-In . SVG Version: 6.00 Build 0)  -->
<svg version="1.1" id="layer" xmlns="http://www.w3.org/2000/svg" xmlns:xlink="http://www.w3.org/1999/xlink" x="0px" y="0px"
	 viewBox="-153 -46 652 652" style="enable-background:new -153 -46 652 652;" xml:space="preserve" fill="currentColor">
<g>
	<path d="M-113.1,329.1c1,0.3,1.8,0.7,2.2,1.2c0.4,0.6,0.6,1.5,0.6,2.7v49.4c0,1.2-0.2,2.1-0.6,2.7c-0.4,0.5-1.1,0.9-2.2,1.2v0.4
		h12.1v-0.4c-1.1-0.3-1.8-0.7-2.2-1.2c-0.4-0.6-0.6-1.4-0.6-2.7l0-49.4c0-1.2,0.2-2.1,0.6-2.7c0.4-0.5,1.1-0.9,2.2-1.2v-0.4h-12.1
		V329.1z M447.9,330.4c0.4-0.5,1.1-0.9,2.2-1.2v-0.4h-12.2v0.4c1.1,0.3,1.8,0.7,2.2,1.2c0.4,0.6,0.6,1.5,0.6,2.7v49.4
		c0,1.2-0.2,2.1-0.6,2.7c-0.4,0.5-1.1,0.9-2.2,1.2v0.4h12.2v-0.4c-1.1-0.3-1.8-0.7-2.2-1.2c-0.4-0.6-0.6-1.5-0.6-2.7l0-49.4
		C447.3,331.8,447.5,330.9,447.9,330.4 M72.3,384.2l-26.5-33.6l24.7-19.3c1.7-1.3,3.4-2,5.1-2.2v-0.4H60v0.4c1,0.2,1.7,0.6,1.7,1.4
		c0,0.7-0.6,1.4-1.8,2.3l-31.2,24.4v-24.2c0-1.2,0.2-2.1,0.6-2.7c0.4-0.5,1.1-0.9,2.2-1.2v-0.4H19.4v0.4c1.1,0.3,1.8,0.7,2.2,1.2
		c0.4,0.6,0.6,1.5,0.6,2.7v49.4c0,1.2-0.2,2.1-0.6,2.7c-0.4,0.5-1.1,0.9-2.2,1.2v0.4h12.2v-0.4c-1.1-0.3-1.8-0.7-2.2-1.2
		c-0.4-0.6-0.6-1.4-0.6-2.7V364l12.5-9.8l21.7,27.7c1.3,1.7,1.9,2.6,2,3.1c0,0.6-0.5,1.4-1.9,1.4v0.4h13.5v-0.4
		c-1.1-0.1-1.9-0.2-2.4-0.5C73.5,385.6,72.9,385,72.3,384.2 M153.9,378.9l-21-45.6c-0.5-1.1-0.8-1.9-0.8-2.3c0-0.8,0.8-1.5,2.1-1.9
		v-0.4H120v0.4c1.4,0.4,2.1,1,2.1,1.9c0,0.5-0.3,1.2-0.8,2.4l-21.9,47.2c-1,2.3-1.9,3.7-2.5,4.4c-0.6,0.7-1.5,1.1-2.7,1.3v0.4h13
		v-0.4c-1.7-0.3-2.6-0.9-2.6-1.9c0-0.5,0.3-1.2,0.8-2.3l5.4-11.8h31.9l5.1,11.3c0.7,1.4,1,2.2,1,2.8c0,1.1-0.9,1.8-2.6,2.1v0.4h13.9
		v-0.4c-1.6-0.4-2.7-0.9-3.2-1.5C156.4,384.3,155.4,382.3,153.9,378.9 M112.8,366.1l14.1-30.8l14,30.8H112.8z M318.9,384.9
		c-0.5-0.6-1.5-2.6-3.1-6l-21-45.6c-0.5-1.1-0.8-1.9-0.8-2.3c0-0.8,0.8-1.5,2.2-1.9v-0.4H282v0.4c1.4,0.4,2.1,1,2.1,1.8
		c0,0.5-0.3,1.3-0.8,2.4l-21.9,47.2c-1,2.3-1.8,3.7-2.5,4.4c-0.6,0.7-1.5,1.1-2.7,1.3v0.4h13v-0.4c-1.7-0.3-2.6-0.9-2.6-1.9
		c0-0.5,0.3-1.2,0.8-2.3l5.4-11.8h31.9l5.1,11.3c0.6,1.4,1,2.2,1,2.8c0,1.1-0.9,1.8-2.6,2.1v0.4h13.9v-0.4
		C320.5,386,319.5,385.5,318.9,384.9L318.9,384.9z M274.8,366.1l14.1-30.8l14,30.8H274.8z M234.1,384.2L216,361.3h0.3h0
		c10.4,0,18.7-7.3,18.8-16.3c0-9-8.4-16.3-18.8-16.3h-36.2v0.4c1,0.3,1.8,0.7,2.2,1.2c0.4,0.6,0.6,1.5,0.6,2.7v49.4
		c0,1.2-0.2,2.1-0.6,2.7c-0.4,0.5-1.1,0.9-2.2,1.2v0.4h12.2v-0.4c-1.1-0.3-1.8-0.7-2.2-1.2c-0.4-0.6-0.6-1.4-0.6-2.6v-21.2h19.2
		l16.1,20.6c1.3,1.7,2,2.6,2,3.1c0,0.6-0.5,1.4-1.9,1.4v0.4h13.5v-0.4c-1.1-0.1-1.9-0.2-2.4-0.5C235.3,385.6,234.7,385,234.1,384.2
		 M189.5,356v-22h26.8c7.4,0,13.5,4.9,13.5,11c0,6.1-6.1,11-13.5,11H189.5z M396.1,329.1c1.4,0.1,2.1,1.2,2.1,2
		c0,0.5-0.5,1.5-1.4,3.5l-20.1,39.7l-20.1-39.7c-0.9-1.9-1.4-3-1.4-3.5c0-0.8,0.7-1.9,2.1-2v-0.4h-15.2v0.4c1.1,0.3,1.8,0.7,2.2,1.2
		c0.4,0.6,0.6,1.5,0.6,2.7v49.4c0,1.2-0.2,2.1-0.6,2.7c-0.4,0.5-1.1,0.9-2.2,1.2v0.4h11.5v-0.4c-1.1-0.3-1.8-0.7-2.2-1.2
		c-0.4-0.6-0.6-1.4-0.6-2.7v-45.1l0.3-0.1l25.5,50.5l25.5-50.5l0.3,0.1v45.1c0,1.2-0.2,2.1-0.6,2.7c-0.4,0.5-1.1,0.9-2.2,1.2v0.4
		h11.5v-0.4c-1.1-0.3-1.8-0.7-2.2-1.2c-0.4-0.6-0.6-1.4-0.6-2.7v-49.4c0-1.2,0.2-2.1,0.6-2.7c0.4-0.6,1.1-0.9,2.2-1.2v-0.4h-15.1
		V329.1z M-20,329.1c1.1,0.3,1.8,0.7,2.2,1.2c0.4,0.6,0.6,1.5,0.6,2.7v44.1l-35.4-42.5c-1.4-1.6-2.1-2.7-2.1-3.4
		c0-0.9,0.5-2,2.1-2.1v-0.4h-15.9v0.4c1.1,0.3,1.8,0.7,2.2,1.2c0.4,0.6,0.6,1.5,0.6,2.7v49.4c0,1.2-0.2,2.1-0.6,2.7
		c-0.4,0.5-1.1,0.9-2.2,1.2v0.4H-57v-0.4c-1.1-0.3-1.8-0.7-2.2-1.2c-0.4-0.6-0.6-1.4-0.6-2.7V335l38.9,46.2c1.2,1.5,1.9,2.5,1.9,3.2
		c0,0.9-0.5,1.9-2,2v0.4h12.5v-0.4c-1-0.3-1.8-0.7-2.2-1.2c-0.4-0.6-0.6-1.5-0.6-2.7l0-49.4c0-1.2,0.2-2.1,0.6-2.7
		c0.4-0.6,1.1-0.9,2.2-1.2v-0.4H-20V329.1z"/>
	<path d="M-35.3,167.4h-94.3c-0.4,0-0.7,0.4-0.8,0.8l-1.1,22.1h0.8c0.9-3.7,1.8-6.8,2.7-9.2c1.2-3,2.8-5.3,4.9-6.9
		c2.1-1.6,4.6-2.4,7.4-2.6c2.6-0.2,5.9-0.4,9.8-0.4h12.4c0.6,0,1.2,0.1,1.8,0.2c0.6,0.2,1.2,0.5,1.7,1c0.5,0.5,0.8,1.2,1,1.9
		c0.2,0.8,0.3,1.6,0.3,2.6v99.3c0,0.4,0.3,0.7,0.7,0.8c4,0,7.9-0.4,11.7-1v-96.7v-2.3c0-1,0.1-1.8,0.3-2.6c0.2-0.7,0.5-1.4,1-1.9
		c0.5-0.5,1-0.8,1.6-1c0.6-0.2,1.1-0.2,1.8-0.2h12.4c3.9,0,7.2,0.1,9.8,0.4c2.8,0.2,5.3,1.1,7.4,2.6c2.1,1.6,3.7,3.9,4.9,6.9
		c1,2.4,1.9,5.5,2.8,9.2h0.8l-1.1-22.1C-34.6,167.7-34.9,167.4-35.3,167.4 M179.1,164.9c-0.3,0-1.2,0.1-2.7,0.2
		c-1.5,0.1-3.3,0.3-5.6,0.6c-2.2,0.3-4.7,0.6-7.6,1.1c-2.3,0.3-4.6,0.7-7.1,1.2l0.1,0.8c0.7-0.1,1.4-0.1,2-0.1
		c1.2,0,2.4,0.1,3.5,0.5c1.2,0.4,2.3,1,3.2,1.9c1,1,1.6,2.2,2,3.6c0.4,1.5,0.6,4.2,0.6,6.2v95.4c0,0.4,0.3,0.7,0.7,0.8
		c4,0,7.9-0.4,11.7-1V165.6C179.8,165.2,179.5,164.9,179.1,164.9 M196.1,212.3l45.1-45.3c-0.3,0-0.7,0-1.1,0c-1,0.1-2,0.1-3.2,0.1
		c-1.1,0.1-2.2,0.2-3.3,0.3c-1.1,0.1-1.9,0.4-2.7,0.6c-1.1,0.3-2.1,1-3.1,2.2l-42.9,48l45.5,59.4c0.5,0.6,0.6,0.7,1.6,0.8
		c0.4,0,1.2,0,2.5,0c1.3,0,2.7-0.1,4.2-0.2c1.6-0.1,3.1-0.2,4.7-0.4c1.4-0.1,2.5-0.3,3.3-0.4l-50.4-64.7L196.1,212.3z M314.2,164.9
		c-0.3,0-1.3,0.1-2.7,0.2c-1.5,0.1-3.3,0.3-5.6,0.6c-2.2,0.3-4.8,0.6-7.6,1.1c-2.3,0.3-4.7,0.7-7.1,1.2l0.1,0.8
		c0.7-0.1,1.3-0.1,2-0.1c1.2,0,2.4,0.1,3.5,0.5c1.2,0.4,2.3,1,3.2,1.9c0.9,1,1.6,2.2,2,3.6c0.4,1.5,0.6,3.1,0.6,5.1l0,96.5
		c0,0.4,0.3,0.7,0.7,0.8c4,0,7.9-0.4,11.7-1V165.6C314.9,165.2,314.6,164.9,314.2,164.9 M58.2,166.2c-31.7,0-48.7,25.1-48.7,56.1
		c0,31,17.1,56.1,48.7,56.1c31.6,0,48.7-25.1,48.7-56.1C106.9,191.3,89.9,166.2,58.2,166.2 M59.9,274.9
		c-22.4,0.9-36.2-22.2-37.1-51.2c-0.9-29.1,11.5-53.2,33.8-54c22.3-0.9,36.2,22.2,37.1,51.2C94.6,250,82.2,274,59.9,274.9
		 M419.8,166.2c-31.7,0-48.7,25.1-48.7,56.1c0,31,17.1,56.1,48.7,56.1c31.6,0,48.7-25.1,48.7-56.1
		C468.5,191.3,451.4,166.2,419.8,166.2 M421.4,274.9c-22.3,0.9-36.2-22.2-37.1-51.2c-0.9-29.1,11.5-53.2,33.9-54
		c22.3-0.9,36.2,22.2,37.1,51.2C456.1,250,443.8,274,421.4,274.9"/>
</g>
</svg>
